<svg width="348" height="411" viewBox="0 0 348 411" fill="none" xmlns="http://www.w3.org/2000/svg">
<path d="M156.242 347.892C114.414 339.389 26.0913 367.557 5.39784 312.19C-15.2956 256.823 37.686 209.095 12.849 156.793C-11.9881 104.491 -2.30165 48.1759 54.9478 44.8726C112.197 41.5693 147.166 66.0032 196.742 47.9913C246.317 29.9795 325.792 23.425 339.038 81.3434C352.285 139.262 315.857 207.657 334.899 243.417C353.941 279.176 304.689 378.069 156.242 347.892Z" fill="#FFE9CA"/>
<path d="M159.518 39.4467C127.62 41.7648 92.499 25.1654 97.5997 6.95152C102.7 -11.2623 141.349 12.7468 164.246 6.95152C187.143 1.15621 209.305 -3.81121 213.541 6.12362C217.776 16.0585 202.264 36.3421 159.518 39.4467Z" fill="#FFE9CA"/>
<path d="M153.968 273.043C153.968 273.043 108.719 362.488 110.739 369.411C112.759 376.334 143.351 387.883 161.966 388.46C180.581 389.037 180.003 279.882 178.849 278.763C177.695 277.643 153.968 273.043 153.968 273.043Z" fill="#30273A"/>
<path d="M161.967 68.2526C157.785 75.0116 161.318 86.5086 168.894 94.5169C176.47 102.525 172.357 118.924 161.967 127.609C151.577 136.294 138.69 154.285 154.058 167.922C169.425 181.559 178.85 172.44 187.724 183.263C196.599 194.086 202.642 211.186 225.92 206.424C249.197 201.662 276.122 183.479 280.734 152.527C285.345 121.575 286.251 79.6487 266.1 63.5989C245.95 47.5492 229.564 50.9494 213.298 58.0147C197.033 65.0801 169.109 56.7067 161.967 68.2526Z" fill="#FFA62B"/>
<path d="M163.065 173.92C163.065 173.92 150.494 152.312 169.325 139.107C188.156 125.902 199.914 120.196 196.633 106.058C193.351 91.9195 181.713 67.3713 203.556 60.5337" stroke="#FE8B86" stroke-linecap="round" stroke-linejoin="round"/>
<path d="M172.755 176.562C168.954 170.258 167.366 162.866 168.243 155.557C169.758 143.435 174.168 136.827 182.821 129.775" stroke="#FE8B86" stroke-linecap="round" stroke-linejoin="round"/>
<path d="M258.357 181.313C271.059 184.992 308.722 214.863 305.042 234.776C301.362 254.69 271.059 319.193 271.059 343.436C271.059 367.678 277.421 387.592 275.754 391.055C274.088 394.518 246.943 411.835 202.291 410.969C157.639 410.102 137.723 386.726 138.156 379.367C138.589 372.007 145.082 307.505 155.473 276.768C155.473 276.768 143.784 252.525 155.04 230.014C161.622 216.85 183.328 184.523 195.017 180.411C206.705 176.299 258.357 181.313 258.357 181.313Z" fill="#81CCCF"/>
<path d="M269.11 237.376C238.127 220.876 177.184 221.767 159.255 222.426C157.533 225.316 156.092 227.912 155.04 230.016C143.784 252.527 155.473 276.77 155.473 276.77C155.321 277.217 155.171 277.673 155.021 278.134C176.501 280.293 217.649 284.606 239.289 288.025C260.839 291.43 275.047 298.374 281.397 302.057C286.583 287.233 292.76 271.52 297.551 258.467C293.953 253.473 286.058 246.401 269.11 237.376Z" fill="#009191"/>
<path d="M274.01 224.922C252.271 212.966 191.683 209.406 168.307 208.46C166.302 211.333 164.396 214.194 162.654 216.924C179.551 217.499 248.084 220.544 269.838 232.509C286.685 241.775 295.255 250.257 298.95 254.614C300.15 251.274 301.235 248.15 302.156 245.31C296.926 240.022 288.113 232.679 274.01 224.922Z" fill="#009191"/>
<path d="M153.632 282.694C152.866 285.359 152.125 288.192 151.409 291.152C180.195 294.443 242.703 302.253 254.337 306.777C268.59 312.32 275.082 319.407 275.132 319.461L275.935 318.753C276.708 316.157 277.552 313.479 278.449 310.743C272.163 305.612 265.078 301.547 257.476 298.708C243.763 293.375 174.952 285.151 153.632 282.694Z" fill="#009191"/>
<path d="M112.865 288.794C112.865 288.794 105.344 276.071 105.559 265.735C105.774 255.398 110.686 244.079 113.093 243.012C115.5 241.946 131.252 236.331 133.002 237.892C134.751 239.454 122.305 246.678 122.305 246.678C122.305 246.678 135.704 245.767 136.491 247.092C137.279 248.417 123.907 252.899 123.907 252.899C123.907 252.899 137.406 253.302 137.209 254.247C137.012 255.192 123.021 259.013 123.021 259.013C123.021 259.013 133.892 259.569 135.473 260.503C137.054 261.437 127.042 264.222 123.954 265.246C120.865 266.271 126.196 278.31 124.758 283.15C123.321 287.99 116.543 293.049 112.865 288.794Z" fill="#FFA285"/>
<path d="M217.296 152.712C217.296 152.712 219.554 168.544 215.219 183.261C215.219 183.261 214.501 191.018 225.035 193.981C238.889 197.877 258.357 181.314 258.357 181.314C258.357 181.314 251.782 165.832 254.811 144.721L217.296 152.712Z" fill="#FFC4A5"/>
<path d="M217.296 152.712C217.708 156.081 217.904 159.474 217.882 162.869C219.527 165.427 221.649 167.659 224.303 168.544C230.429 170.585 246.529 159.874 254.265 149.697C254.392 148.079 254.568 146.423 254.811 144.726L217.296 152.712Z" fill="#FFA285"/>
<path d="M261.101 179.491C260.522 176.918 260.363 163.224 257.293 162.463C254.223 161.702 237.433 168.741 234.836 169.655C232.239 170.569 232.341 174.609 232.29 187.019C232.238 199.429 231.996 207.246 231.996 207.246C231.996 207.246 219.826 219.78 219.826 222.148C219.826 224.516 219.716 250.954 219.826 273.313C219.936 295.672 213.69 372.586 213.297 381.822C212.903 391.057 213.192 394.809 223.005 395.098C232.817 395.387 259.658 392.212 271.779 388.46C283.9 384.708 289.96 381.245 290.54 379.802C291.119 378.359 278.624 343.726 278.376 334.202C278.129 324.679 288.37 299.336 297.681 273.334C306.991 247.332 314.088 236.84 305.297 219.805C292.27 194.576 261.101 179.491 261.101 179.491Z" fill="#3C3048"/>
<path d="M259.467 166.43C259.467 166.43 238.15 173.524 236.783 173.92C235.415 174.315 236.995 209.525 236.783 211.258C236.57 212.991 225.026 222.427 224.303 225.068C223.579 227.708 225.023 276.48 224.303 304.477C223.583 332.473 218.673 380.38 218.388 383.266C218.104 386.152 217.551 389.615 221.722 389.904C225.892 390.193 269.565 387.076 289.287 374.637" stroke="#484151" stroke-linecap="round" stroke-linejoin="round"/>
<path d="M278.376 379.864C278.376 379.864 278.157 379.16 277.805 377.877" stroke="#484151" stroke-linecap="round" stroke-linejoin="round"/>
<path d="M276.797 373.941C274.436 364.152 270.616 343.867 274.001 325.664C278.671 300.546 294.006 261.185 296.82 246.034C299.327 232.534 304.534 227.968 302.769 217.852" stroke="#484151" stroke-linecap="round" stroke-linejoin="round" stroke-dasharray="4.91 4.91"/>
<path d="M302.343 215.856C302.185 215.215 301.999 214.55 301.786 213.862" stroke="#484151" stroke-linecap="round" stroke-linejoin="round"/>
<path d="M252.876 55.9886C225.44 44.908 204.391 57.2867 190.535 86.2898C176.679 115.293 185.773 139.969 204.821 148.631C223.87 157.292 255.039 159.454 274.086 119.626C289.887 86.5928 275.389 65.0798 252.876 55.9886Z" fill="#FFC4A5"/>
<path d="M207.077 77.0921C207.077 77.0921 211.305 73.3666 216.727 73.629C225.603 74.062 227.874 71.1395 224.303 69.1915C219.186 66.399 208.61 70.0575 207.077 77.0921Z" fill="#E56E6E"/>
<path d="M251.468 95.4912C249.913 90.6112 246.733 86.4109 242.459 83.5892C235.536 79.256 240.714 76.48 243.974 78.0001C250.387 80.9888 253.308 87.5938 251.468 95.4912Z" fill="#E56E6E"/>
<path d="M224.303 85.6421C224.303 85.6421 220.407 101.309 214.996 102.891C209.584 104.474 204.822 100.794 203.091 101.66C201.36 102.526 202.441 111.18 206.337 115.729" stroke="#D88873" stroke-width="1.5" stroke-linecap="round" stroke-linejoin="round"/>
<path d="M232.207 105.49C230.779 104.698 237.296 100.731 240.782 101.658C244.269 102.585 246.743 106.986 246.565 109.329C246.387 111.672 243.419 110.488 242.421 108.071C240.16 102.59 233.249 106.067 232.207 105.49Z" fill="#29282D"/>
<path d="M212.732 96.5855C214.533 96.7958 211.746 88.9688 208.373 88.0788C205.376 87.289 201.837 90.0766 201.02 92.0362C200.255 93.8708 202.331 94.4164 203.954 93.0297C208.294 89.3207 211.492 96.4406 212.732 96.5855Z" fill="#29282D"/>
<path d="M257.01 132.156C253.714 137.846 245.424 139.204 238.494 135.189C231.564 131.175 228.616 123.309 231.911 117.619C235.206 111.93 243.497 110.571 250.427 114.586C257.358 118.6 260.303 126.467 257.01 132.156Z" fill="#FFA9A9"/>
<path d="M202.292 120.59C202.292 120.59 204.382 125.929 212.174 127.372C219.966 128.815 226.46 123.187 226.46 123.187" stroke="#D88873" stroke-width="1.5" stroke-linecap="round" stroke-linejoin="round"/>
<path d="M184.088 108.646C189.875 110.187 195.725 108.419 198.367 103.859C201.662 98.1694 198.715 90.3026 191.784 86.2881C191.458 86.0994 191.127 85.9338 190.796 85.769C190.713 85.9454 190.623 86.1143 190.538 86.2923C187.084 93.3039 184.901 100.872 184.088 108.646Z" fill="#FFA9A9"/>
<path d="M277.336 120.59C277.336 120.59 265.43 119.651 262.616 112.279C259.802 104.908 264.131 98.4126 268.353 91.2703C272.574 84.128 269.306 74.3869 259.467 75.469C259.467 75.469 257.205 58.1526 242.27 56.8544C227.335 55.5563 218.46 74.17 196.382 71.5729C174.303 68.9757 169.972 62.7665 161.966 68.2521C161.966 68.2521 163.914 57.9365 178.2 58.5855C192.486 59.2346 205.445 52.3084 216.498 40.8361C227.551 29.3639 252.876 31.7458 264.564 38.4559C276.253 45.1661 281.015 59.6676 278.418 69.6248C278.418 69.6248 289.673 73.0879 293.136 82.3952C296.599 91.7025 284.767 120.924 287.364 138.818C289.961 156.711 298.063 167.966 299.495 181.243C300.928 194.519 300.712 202.31 289.567 207.127C283.898 209.577 283.65 204.619 265.948 217.03C248.246 229.44 231.794 197.116 240.448 181.82C249.103 166.523 256.61 169.318 258.487 158.411C263.266 130.664 277.336 120.59 277.336 120.59Z" fill="#FFA62B"/>
<path d="M270.116 214.216C280.366 207.721 285.993 197.981 282.097 180.233C278.201 162.484 274.606 139.323 280.733 118.976C286.859 98.6296 289.674 74.2048 269.111 72.6724" stroke="#E56E6E" stroke-linecap="round" stroke-linejoin="round"/>
<path d="M259.467 219.809C264.385 216.018 268.399 211.18 271.216 205.646C274.033 200.111 275.583 194.019 275.754 187.812C276.47 166.383 274.116 147.533 278.376 129.776" stroke="#E56E6E" stroke-linecap="round" stroke-linejoin="round"/>
<path d="M288.591 77.5801C288.591 77.5801 297.249 83.4781 294.221 100.686C291.192 117.894 289.46 138.004 298.118 153.815C306.776 169.626 308.723 192.787 295.737 198.847" stroke="#FFA62B" stroke-linecap="round" stroke-linejoin="round"/>
<path d="M259.467 140.722L274.089 119.625C274.089 119.625 284.881 113.056 290.188 119.193C297.465 127.609 282.509 150.13 259.467 140.722Z" fill="#FFA285"/>
<path d="M290.188 119.193C284.881 113.056 274.089 119.625 274.089 119.625L270.892 124.238C276.231 123.741 285.463 124.35 288.791 133.626C292.394 128.575 293.201 122.676 290.188 119.193Z" fill="#FFC4A5"/>
<path d="M151.019 261.736C151.019 261.736 149.124 250.508 154.896 243.87C160.668 237.231 178.715 219.778 186.356 214.216C193.997 208.654 216.334 178.817 216.334 178.817C216.334 178.817 195.879 174.468 186.356 181.751C176.833 189.034 153.455 224.822 149.126 233.191C144.797 241.561 146.855 259.69 151.019 261.736Z" fill="#30273A"/>
<path d="M148.503 257.991C148.503 257.991 147.371 243.292 152.288 238.386C157.205 233.48 194.146 202.31 194.146 202.31" stroke="#484151" stroke-linecap="round" stroke-linejoin="round"/>
<path d="M217.302 163.843C217.302 163.843 192.631 164.41 192.345 166.43C192.059 168.45 195.877 199.136 194.146 202.31C192.414 205.484 186.353 214.215 186.353 214.215C186.353 214.215 199.052 205.196 206.554 198.847C214.057 192.498 217.658 181.838 217.658 181.838L217.302 163.843Z" fill="#3C3048"/>
<path d="M122.552 312.942C122.552 312.942 108.32 320.979 87.0532 308.402C68.4386 297.391 66.5626 268.895 83.879 260.084C83.879 260.084 81.281 276.399 93.1143 292.952C103.727 307.802 122.552 312.942 122.552 312.942Z" fill="#343C4C"/>
<path d="M200.621 226.208C200.621 226.208 209.528 224.579 214.478 230.104C219.428 235.629 223.425 246.266 220.539 253.048C217.653 259.831 207.541 263.799 200.621 258.64C193.7 253.481 193.118 248.594 188.967 247.712C184.816 246.829 179.124 245.403 174.218 235.23C169.312 225.056 162.818 209.046 171.765 202.765C180.712 196.484 186.628 200.381 191.822 208.029C197.017 215.677 200.621 226.208 200.621 226.208Z" fill="#343C4C"/>
<path d="M200.621 226.207C196.353 227.22 188.101 231.283 188.967 239.627" stroke="#232B38" stroke-linecap="round" stroke-linejoin="round"/>
<path d="M212.723 240.379C212.723 240.379 220.25 246.266 219.42 255.052" stroke="#232B38" stroke-linecap="round" stroke-linejoin="round"/>
<path d="M203.071 246.266C203.071 246.266 209.76 254.388 210.892 260.644" stroke="#232B38" stroke-linecap="round" stroke-linejoin="round"/>
<path d="M192.243 269.774C206.865 275.906 203.37 307.158 203.37 307.158C203.37 307.158 213.759 298.284 219.821 299.799C225.882 301.314 226.56 312.426 215.289 323.97C204.019 335.514 191.051 338.528 187.472 325.225C187.472 325.225 152.649 326.856 152.144 304.561C151.639 282.267 172.556 261.519 192.243 269.774Z" fill="#343C4C"/>
<path d="M203.37 307.158C201.277 309.539 198.158 314.134 197.004 317.97" stroke="#232B38" stroke-linecap="round" stroke-linejoin="round"/>
<path d="M217.798 313.499C215.917 313.499 218.953 305.995 221.117 306.572C223.281 307.149 220.684 313.499 217.798 313.499Z" fill="#FFA9A9"/>
<path d="M213.758 313.382C212.019 314.448 213.758 307.614 215.634 307.504C217.51 307.394 216.277 311.834 213.758 313.382Z" fill="#FFA9A9"/>
<path d="M219.114 319.475C218.919 318.373 218.413 317.351 217.654 316.529C215.057 313.932 207.554 315.519 202.358 322.589C198.485 327.862 199.429 331.547 201.712 333.207C206.041 331.808 210.799 328.571 215.289 323.97C216.669 322.564 217.947 321.062 219.114 319.475Z" fill="#FFA9A9"/>
<path d="M220.117 316.129C220.243 316.252 220.393 316.347 220.558 316.409C220.723 316.471 220.898 316.498 221.074 316.489C222.044 314.842 222.822 313.088 223.392 311.263C221.48 312.672 219.608 315.598 220.117 316.129Z" fill="#FFA9A9"/>
<path d="M126.158 200.105C126.158 200.105 136.394 223.394 126.158 242.225C115.923 261.056 104.668 286.932 112.027 306.245C119.386 325.558 135.196 335.728 154.019 334.65C154.019 334.65 157.266 344.17 164.408 344.607C171.551 345.043 180.21 342.66 188.868 333.568C197.526 324.477 196.692 311.49 186.395 314.087C185.388 310.434 184.042 306.883 182.374 303.482C182.374 303.482 189.517 297.637 192.331 281.187C194.375 269.237 187.798 257.679 191.032 245.688C194.928 231.244 188.018 204.637 172.901 190.776L126.158 200.105Z" fill="#3F4451"/>
<path d="M186.395 314.084C181.533 314.792 171.262 319.785 162.893 331.47" stroke="#232B38" stroke-linecap="round" stroke-linejoin="round"/>
<path d="M121.911 308.529C121.911 308.529 137.958 288.24 154.38 285.876C171.407 283.423 177.179 294.824 182.374 303.482" stroke="#232B38" stroke-linecap="round" stroke-linejoin="round"/>
<path d="M187.135 323.969C185.254 323.969 188.29 316.465 190.454 317.043C192.618 317.621 190.022 323.969 187.135 323.969Z" fill="#FFA9A9"/>
<path d="M183.096 323.852C181.357 324.919 183.096 318.084 184.972 317.974C186.848 317.864 185.613 322.304 183.096 323.852Z" fill="#FFA9A9"/>
<path d="M171.695 333.061C167.511 338.756 168.948 342.599 171.624 344.037C176.931 342.872 182.697 339.891 188.475 333.959C188.98 331.12 188.431 328.439 186.992 327C184.395 324.403 176.891 325.99 171.695 333.061Z" fill="#FFA9A9"/>
<path d="M189.453 326.6C190.358 327.552 192.479 326.535 194.015 325.097C194.453 323.776 194.711 322.401 194.782 321.011C192.574 320.583 188.753 325.864 189.453 326.6Z" fill="#FFA9A9"/>
<path d="M168.245 243.392C168.245 243.392 181.109 239.597 188.708 245.676C196.307 251.755 201.562 263.92 196.586 271.521C191.611 279.122 176.822 276.773 171.294 269.586C165.766 262.399 150.956 265.854 144.194 261.984C137.432 258.114 131.247 246.751 129.554 235.793C127.862 224.836 139.213 211.814 150.899 219.692C162.586 227.571 168.245 243.392 168.245 243.392Z" fill="#343C4C"/>
<path d="M150.301 255.233C150.301 255.233 155.103 246.084 168.246 243.394" stroke="#232B38" stroke-linecap="round" stroke-linejoin="round"/>
<path d="M191.817 257.699C195.174 261.244 197.032 265.948 197.004 270.831" stroke="#232B38" stroke-linecap="round" stroke-linejoin="round"/>
<path d="M182.53 263.643C186.029 266.946 188.467 271.214 189.536 275.906" stroke="#232B38" stroke-linecap="round" stroke-linejoin="round"/>
<path d="M125.032 199.632C125.032 199.632 134.976 203.497 149.329 200.302C163.682 197.108 177.42 188.068 177.42 188.068C177.42 188.068 179.344 186.45 180.499 190.923C181.654 195.396 181.797 200.208 179.919 202.852C178.041 205.497 169.674 211.703 155.532 214.877C141.391 218.051 131.583 215.305 129.991 214.012C127.683 212.136 122.524 199.971 125.032 199.632Z" fill="#009094"/>
<path d="M140.306 147.886C140.306 147.886 135.519 127.796 139.169 125.703C142.818 123.61 146.45 122.353 148.961 118.334C151.472 114.316 155.973 117.165 161.089 119.257C172.358 123.861 176.208 120.598 178.738 121.557C183.592 123.397 179.658 133.999 166.993 136.542C156.586 138.634 153.353 137.125 153.353 137.125C153.353 137.125 152.461 143.061 150.352 145.711C146.893 150.063 142.65 149.56 140.306 147.886Z" fill="#343C4C"/>
<path d="M140.789 130.771C140.789 130.771 143.822 134.827 153.353 137.13" stroke="#232B38" stroke-linecap="round" stroke-linejoin="round"/>
<path d="M120.903 140.418C101.566 153.792 101.566 172.309 108.349 184.718C116.296 199.268 136.632 208.196 157.989 199.632C179.345 191.067 191.971 176.739 185.983 159.519C179.996 142.299 169.478 140.487 161.569 142.401C161.567 142.401 144.347 124.202 120.903 140.418Z" fill="#3F4451"/>
<path d="M185.198 161.427C183.396 162.08 179.699 162.408 175.093 157.3C175.093 157.3 179.934 166.464 175.093 172.958C175.005 173.075 174.905 173.178 174.814 173.289L174.823 173.296C174.823 173.296 188.604 190.336 195.574 181.974C201.71 174.617 185.198 161.427 185.198 161.427Z" fill="#FFA9A9"/>
<path d="M186.395 160.811C186.395 160.811 181.665 164.588 175.093 157.3C175.093 157.3 179.933 166.464 175.093 172.958C170.253 179.451 160.729 180.533 155.534 175.122" stroke="#29282D" stroke-width="2" stroke-linecap="round" stroke-linejoin="round"/>
<path d="M155.799 157.49C153.005 154.751 173.133 140.16 176.38 142.695C179.627 145.23 177.336 154.771 175.093 157.3C172.85 159.83 158.811 160.442 155.799 157.49Z" fill="#29282D"/>
<path d="M129.848 153.792C124.467 157.588 124.64 174.903 132.59 180.678C140.541 186.452 155.44 176.138 155.534 166.207C155.628 156.276 138.507 147.684 129.848 153.792Z" fill="#343C4C"/>
<path d="M147.859 164.74C148.842 163.777 142.147 160.009 139.669 161.393C137.191 162.777 135.34 169.158 136.579 170.548C137.818 171.938 140.528 171.409 140.479 169.361C140.429 167.312 140.473 165.569 142.375 164.838C144.005 164.212 146.855 165.724 147.859 164.74Z" fill="#29282D"/>
<path d="M95.7685 170.745C95.7685 170.745 112.545 175.693 117.613 173.283C120.256 172.026 117.458 166.577 118.855 160.672C120.253 154.766 125.23 153.79 125.23 151.171C125.23 148.553 114.374 131.521 109.076 131.876C103.778 132.23 106.467 149.076 102.224 154.616C97.9806 160.155 93.2044 170.044 95.7685 170.745Z" fill="#29282D"/>
<path d="M96.6271 171.166C93.4264 170.707 96.4714 163.477 100.358 154.616C104.244 145.755 103.778 133.008 107.509 131.766C111.24 130.524 134.232 147.156 133.617 153.374C133.002 159.592 113.416 173.569 96.6271 171.166Z" fill="#343C4C"/>
<path d="M300.116 219.809C288.691 205.693 264.853 218.584 242.919 238.967C220.985 259.35 216.007 267.968 213.628 269.411C211.248 270.854 207.301 268.545 205.523 269.411C203.746 270.277 204.66 276.144 202.183 275.52C199.706 274.895 198.451 269.7 196.048 270.277C193.646 270.854 192.757 275.079 190.951 275.997C189.144 276.914 166.912 270.808 142.613 263.826C128.248 259.702 119.514 258.254 116.569 258.13C113.623 258.007 101.213 265.499 105.542 279.359C109.871 293.219 186.759 338.583 202.183 339.738C217.607 340.893 225.374 333.963 257.442 307.989C294.725 277.796 320.427 244.913 300.116 219.809Z" fill="#4B3E52"/>
<path d="M197.688 278.177C197.688 278.177 208.435 292.356 209.083 308.23C209.083 308.23 216.765 282.748 202.873 279.364" stroke="#3C3048" stroke-linecap="round" stroke-linejoin="round"/>
<path d="M215.209 275.327C215.209 275.327 219.408 289.756 219.475 301.445" stroke="#3C3048" stroke-linecap="round" stroke-linejoin="round"/>
<path d="M307.268 240.117C307.268 240.117 286.506 270.023 261.25 294.898C235.994 319.773 216.713 328.43 214.373 328.718C212.033 329.007 211.604 324.967 209.8 325.255C207.996 325.543 206.556 327.882 204.967 328.733C203.378 329.583 201.837 325.543 199 325.255C196.162 324.967 155.858 320.659 116.093 290.767" stroke="#3C3048" stroke-linecap="round" stroke-linejoin="round" stroke-dasharray="5 5"/>
<path d="M117.283 199.079C117.283 199.079 111.623 203.429 118.895 207.814C118.895 207.814 115 212.524 121.98 215.421C121.98 215.421 119.101 219.643 124.508 222.104C124.508 222.104 122.664 226.34 127.52 228.288C132.377 230.236 135.567 229.194 136.665 227.046C137.764 224.899 133.339 222.862 133.339 222.862C133.339 222.862 137.302 221.881 137.127 219.302C136.952 216.723 131.911 215.435 131.911 215.435C131.911 215.435 135.084 214.785 135.163 212.206C135.243 209.627 130.059 208.023 130.059 208.023C130.059 208.023 134.319 206.775 133.371 203.598C132.423 200.42 127.394 196.904 117.283 199.079Z" fill="#FFC4A5"/>
<path d="M118.895 207.814C122.561 208.667 126.365 208.739 130.06 208.026" stroke="#D88873" stroke-width="1.5" stroke-linecap="round" stroke-linejoin="round"/>
<path d="M121.979 215.422C125.27 215.943 128.622 215.948 131.914 215.435" stroke="#D88873" stroke-width="1.5" stroke-linecap="round" stroke-linejoin="round"/>
<path d="M124.508 222.104C127.353 223.038 130.376 223.298 133.339 222.863" stroke="#D88873" stroke-width="1.5" stroke-linecap="round" stroke-linejoin="round"/>
<path d="M92.9197 232.659C92.9197 232.659 73.2727 232.666 66.9451 215.01C63.7709 206.151 81.6644 220.045 81.6644 220.045C81.6644 220.045 77.6234 199.662 88.0135 199.662C98.6935 199.662 92.9197 232.659 92.9197 232.659Z" fill="#FF8B82"/>
<path d="M318.606 202.318C318.606 202.318 318.026 178.499 325.244 175.329C332.462 172.159 327.264 188.824 327.264 188.824C327.264 188.824 341.983 176.488 346.89 182.262C351.796 188.035 337.074 202.75 318.606 202.318Z" fill="#FF8B82"/>
<path d="M36.2291 104.371C37.8295 104.371 39.1268 103.074 39.1268 101.474C39.1268 99.8735 37.8295 98.5762 36.2291 98.5762C34.6288 98.5762 33.3315 99.8735 33.3315 101.474C33.3315 103.074 34.6288 104.371 36.2291 104.371Z" fill="white"/>
<path d="M136.612 104.371C138.213 104.371 139.51 103.074 139.51 101.474C139.51 99.8735 138.213 98.5762 136.612 98.5762C135.012 98.5762 133.715 99.8735 133.715 101.474C133.715 103.074 135.012 104.371 136.612 104.371Z" fill="white"/>
</svg>
